@startuml
skinparam classAttributeIconSize 0
left to right direction
package "Classes (Removed · Unchanged · Added)" <<Rectangle>> {
  class PetClinicApplication <<REMOVED>> #LightSalmon {
  }
  class AbstractResourceController {
  }
  class BaseEntity {
    + id: Integer
  }
  class CacheConfig {
  }
  class CallMonitoringAspect {
    + enabled: boolean
    + callCount: int
    + accumulatedCallTime: long
  }
  class NamedEntity {
    + name: String
  }
  class Owner {
    + address: String
    + city: String
    + telephone: String
    + pets: Set
  }
  interface OwnerRepository {
  }
  class OwnerResource {
    + ownerService: OwnerService
  }
  class OwnerService {
    + ownerRepository: OwnerRepository
  }
  class Person {
    + firstName: String
    + lastName: String
  }
  class Pet {
    + birthDate: Date
    + type: PetType
    + owner: Owner
  }
  interface PetRepository {
  }
  class PetResource {
    + petService: PetService
    + ownerService: OwnerService
  }
  class PetService {
    + petRepository: PetRepository
  }
  class PetType {
  }
  class PetValidator {
  }
  class PetclinicProperties {
    + database: String
  }
  class Specialty {
  }
  class Vet {
    + specialties: Set
  }
  interface VetRepository {
  }
  class VetResource {
    + vetService: VetService
  }
  class VetService {
    + vetRepository: VetRepository
  }
  class Vets {
    + vets: List
  }
  class Visit {
    + date: Date
    + description: String
    + petId: int
  }
  interface VisitRepository {
  }
  class VisitResource {
    + visitService: VisitService
  }
  class VisitService {
    + visitRepository: VisitRepository
  }
  class WebConfig {
  }
  class ClientsServiceApplication <<ADDED>> #LightGreen {
  }
  class ConfigServerApplication <<ADDED>> #LightGreen {
  }
  class DiscoveryServerApplication <<ADDED>> #LightGreen {
  }
  class VetsServiceApplication <<ADDED>> #LightGreen {
  }
  class VisitsServiceApplication <<ADDED>> #LightGreen {
  }
}
AbstractResourceController <|--[#red,dotted] OwnerResource
AbstractResourceController <|--[#red,dotted] PetResource
AbstractResourceController <|--[#red,dotted] VetResource
AbstractResourceController <|--[#red,dotted] VisitResource
Visit -[#red,dotted]-> Pet
VisitResource -[#red,dotted]-> PetService
BaseEntity <|-- NamedEntity
BaseEntity <|-- Person
BaseEntity <|-- Visit
NamedEntity <|-- Pet
NamedEntity <|-- PetType
NamedEntity <|-- Specialty
OwnerResource --> OwnerService
OwnerService --> OwnerRepository
Person <|-- Owner
Person <|-- Vet
Pet --> Owner
Pet --> PetType
PetResource --> OwnerService
PetResource --> PetService
PetService --> PetRepository
VetResource --> VetService
VetService --> VetRepository
VisitResource --> VisitService
VisitService --> VisitRepository
@enduml