@startuml
skinparam classAttributeIconSize 0
left to right direction
class PetClinicApplication {
}
class BaseEntity {
  + id: Integer
}
class NamedEntity {
  + name: String
}
class Owner {
  + address: String
  + city: String
  + telephone: String
  + pets: Set
}
class Person {
  + firstName: String
  + lastName: String
}
class Pet {
  + birthDate: Date
  + type: PetType
  + owner: Owner
  + visits: Set
}
class PetType {
}
class Specialty {
}
class Vet {
  + specialties: Set
}
class Vets {
  + vets: List
}
class Visit {
  + date: Date
  + description: String
  + pet: Pet
}
interface OwnerRepository {
}
interface PetRepository {
}
interface VetRepository {
}
interface VisitRepository {
}
interface ClinicService {
}
class ClinicServiceImpl {
  + petRepository: PetRepository
  + vetRepository: VetRepository
  + ownerRepository: OwnerRepository
  + visitRepository: VisitRepository
}
class CallMonitoringAspect {
  + enabled: boolean
  + callCount: int
  + accumulatedCallTime: long
}
class EntityUtils {
}
class OwnerResource {
  + clinicService: ClinicService
}
class PetResource {
  + clinicService: ClinicService
}
class PetValidator {
}
class VetResource {
  + clinicService: ClinicService
}
class VisitController {
  + clinicService: ClinicService
}
BaseEntity <|-- NamedEntity
BaseEntity <|-- Person
BaseEntity <|-- Visit
ClinicService <|.. ClinicServiceImpl
ClinicServiceImpl --> OwnerRepository
ClinicServiceImpl --> PetRepository
ClinicServiceImpl --> VetRepository
ClinicServiceImpl --> VisitRepository
NamedEntity <|-- Pet
NamedEntity <|-- PetType
NamedEntity <|-- Specialty
OwnerResource --> ClinicService
Person <|-- Owner
Person <|-- Vet
Pet --> Owner
Pet --> PetType
PetResource --> ClinicService
VetResource --> ClinicService
Visit --> Pet
VisitController --> ClinicService
@enduml