@startuml
skinparam classAttributeIconSize 0
left to right direction
package "Classes (Removed · Unchanged · Added)" <<Rectangle>> {
  interface ClinicService <<REMOVED>> #LightSalmon {
  }
  class ClinicServiceImpl <<REMOVED>> #LightSalmon {
    + petRepository: PetRepository
    + vetRepository: VetRepository
    + ownerRepository: OwnerRepository
    + visitRepository: VisitRepository
  }
  class BaseEntity {
    + id: Integer
  }
  class CacheConfig {
  }
  class CallMonitoringAspect {
    + enabled: boolean
    + callCount: int
    + accumulatedCallTime: long
  }
  class NamedEntity {
    + name: String
  }
  class Owner {
    + address: String
    + city: String
    + telephone: String
    + pets: Set
  }
  interface OwnerRepository {
  }
  class OwnerResource {
    + ownerService: OwnerService
  }
  class Person {
    + firstName: String
    + lastName: String
  }
  class Pet {
    + birthDate: Date
    + type: PetType
    + owner: Owner
    + visits: Set
  }
  class PetClinicApplication {
  }
  interface PetRepository {
  }
  class PetResource {
    + petService: PetService
    + ownerService: OwnerService
  }
  class PetType {
  }
  class PetValidator {
  }
  class Specialty {
  }
  class Vet {
    + specialties: Set
  }
  interface VetRepository {
  }
  class VetResource {
    + vetService: VetService
  }
  class Vets {
    + vets: List
  }
  class Visit {
    + date: Date
    + description: String
    + pet: Pet
  }
  interface VisitRepository {
  }
  class VisitResource {
    + visitService: VisitService
    + petService: PetService
  }
  class WebConfig {
  }
  class AbstractResourceController <<ADDED>> #LightGreen {
  }
  class OwnerService <<ADDED>> #LightGreen {
    + ownerRepository: OwnerRepository
  }
  class PetService <<ADDED>> #LightGreen {
    + petRepository: PetRepository
  }
  class PetclinicProperties <<ADDED>> #LightGreen {
    + database: String
  }
  class VetService <<ADDED>> #LightGreen {
    + vetRepository: VetRepository
  }
  class VisitService <<ADDED>> #LightGreen {
    + visitRepository: VisitRepository
  }
}
ClinicService <|..[#red,dotted] ClinicServiceImpl
ClinicServiceImpl -[#red,dotted]-> OwnerRepository
ClinicServiceImpl -[#red,dotted]-> PetRepository
ClinicServiceImpl -[#red,dotted]-> VetRepository
ClinicServiceImpl -[#red,dotted]-> VisitRepository
OwnerResource -[#red,dotted]-> ClinicService
PetResource -[#red,dotted]-> ClinicService
VetResource -[#red,dotted]-> ClinicService
VisitResource -[#red,dotted]-> ClinicService
BaseEntity <|-- NamedEntity
BaseEntity <|-- Person
BaseEntity <|-- Visit
NamedEntity <|-- Pet
NamedEntity <|-- PetType
NamedEntity <|-- Specialty
Person <|-- Owner
Person <|-- Vet
Pet --> Owner
Pet --> PetType
Visit --> Pet
AbstractResourceController <|--[#green,dotted] OwnerResource
AbstractResourceController <|--[#green,dotted] PetResource
AbstractResourceController <|--[#green,dotted] VetResource
AbstractResourceController <|--[#green,dotted] VisitResource
OwnerResource -[#green,dotted]-> OwnerService
OwnerService -[#green,dotted]-> OwnerRepository
PetResource -[#green,dotted]-> OwnerService
PetResource -[#green,dotted]-> PetService
PetService -[#green,dotted]-> PetRepository
VetResource -[#green,dotted]-> VetService
VetService -[#green,dotted]-> VetRepository
VisitResource -[#green,dotted]-> PetService
VisitResource -[#green,dotted]-> VisitService
VisitService -[#green,dotted]-> VisitRepository
@enduml